<?xml version="1.0" encoding="utf-8"?>
<!-- Generator: Adobe Illustrator 16.0.0, SVG Export Plug-In . SVG Version: 6.00 Build 0)  -->
<!DOCTYPE svg PUBLIC "-//W3C//DTD SVG 1.1//EN" "http://www.w3.org/Graphics/SVG/1.1/DTD/svg11.dtd">
<svg version="1.1" id="Calque_1" xmlns="http://www.w3.org/2000/svg" xmlns:xlink="http://www.w3.org/1999/xlink" x="0px" y="0px"
	 width="841.889px" height="1190.551px" viewBox="0 0 841.889 1190.551" enable-background="new 0 0 841.889 1190.551"
	 xml:space="preserve">
<g id="XMLID_1_">
	<g id="XMLID_2485_">
		<circle id="XMLID_2486_" fill="none" cx="420.945" cy="628.698" r="402.878"/>
	</g>
	<g id="XMLID_2481_">
		<path id="XMLID_2482_" fill="#CDCCCC" d="M420.945,1049.642C188.793,1049.642,0,860.849,0,628.698
			c0-232.152,188.793-420.945,420.944-420.945c232.152,0,420.944,188.793,420.944,420.945
			C841.889,860.849,653.097,1049.642,420.945,1049.642z M420.945,242.982c-213.182,0-385.715,173.437-385.715,385.716
			c0,212.278,173.437,385.716,385.715,385.716c212.279,0,385.716-173.437,385.716-385.716S633.224,242.982,420.945,242.982z"/>
	</g>
	<g id="XMLID_2477_">
		<g id="XMLID_2478_">
			<circle id="XMLID_2479_" fill="none" cx="420.945" cy="628.698" r="342.356"/>
		</g>
	</g>
	<path id="XMLID_364_" fill="none" d="M429.978,93.935h-13.55c-28.906,0-52.393,23.486-52.393,52.392v37.036H482.37v-37.939
		C482.37,116.518,458.884,93.935,429.978,93.935z"/>
	<path id="XMLID_361_" fill="#CDCCCC" d="M499.533,199.623H347.776v-69.555c0-29.81,23.486-53.296,53.296-53.296h45.166
		c29.81,0,53.296,23.486,53.296,53.296V199.623L499.533,199.623z M381.198,165.297h84.912v-35.229
		c0-10.84-9.033-19.873-19.873-19.873h-45.166c-10.84,0-19.873,9.033-19.873,19.873V165.297L381.198,165.297z"/>
	<g id="XMLID_359_">
		<rect id="XMLID_360_" x="393.845" y="182.46" fill="#CDCCCC" width="57.813" height="43.359"/>
	</g>
	<path id="XMLID_358_" fill="none" d="M672.067,206.849l-12.646-7.227c-25.293-14.453-56.909-5.42-71.362,18.97l-18.066,31.616
		l102.075,58.715l18.066-31.615C705.489,252.919,696.455,221.302,672.067,206.849z"/>
	<path id="XMLID_355_" fill="#CDCCCC" d="M678.389,332.41l-131.884-75.878l34.326-59.619c9.937-16.26,27.1-27.1,46.069-27.1
		c9.033,0,18.97,2.71,26.196,7.227l38.843,22.583c25.292,14.453,34.325,46.973,19.872,73.169L678.389,332.41z M592.574,244.789
		l73.168,42.456l18.066-30.713c5.42-9.033,1.807-21.68-7.227-27.1l-38.842-22.583c-2.71-1.807-6.323-2.71-9.937-2.71
		c-7.227,0-13.55,3.613-17.163,9.937L592.574,244.789z"/>
	<path id="XMLID_354_" fill="none" d="M171.63,202.333l11.743-7.227c25.293-14.453,56.908-5.42,71.361,18.97l18.066,31.616
		l-102.074,58.715l-18.066-31.615C138.207,248.402,146.337,216.786,171.63,202.333z"/>
	<path id="XMLID_351_" fill="#CDCCCC" d="M164.404,327.893l-34.326-59.618c-7.227-12.646-9.033-27.1-5.42-40.649
		s12.646-25.293,25.293-32.52l38.843-22.583c8.13-4.517,17.163-7.227,26.195-7.227c18.97,0,37.036,9.937,46.069,27.1l34.326,59.619
		L164.404,327.893z M214.989,199.623c-3.613,0-7.226,0.903-9.936,2.71l-38.843,22.583c-4.517,2.71-8.13,7.227-9.033,11.743
		c-1.807,5.42-0.903,10.84,1.807,15.356l18.066,30.713l73.168-42.456l-18.066-30.713
		C229.442,203.236,222.215,199.623,214.989,199.623z"/>
	
		<circle id="XMLID_350_" fill="none" stroke="#0067F5" stroke-width="8" stroke-linecap="round" stroke-linejoin="round" stroke-miterlimit="10" cx="420.945" cy="630.504" r="101.171"/>
	
		<circle id="XMLID_333_" fill="none" stroke="#0067F5" stroke-width="8" stroke-linecap="round" stroke-linejoin="round" stroke-miterlimit="10" cx="420.945" cy="630.505" r="345.066"/>
	
		<circle id="XMLID_330_" fill="none" stroke="#0067F5" stroke-width="8" stroke-linecap="round" stroke-linejoin="round" stroke-miterlimit="10" cx="420.945" cy="630.505" r="37.036"/>
	<path id="XMLID_334_" fill="none" stroke="#CDCCCC" stroke-width="5" stroke-miterlimit="10" d="M765.108,965.635
		c-190.6,190.6-500.437,190.6-691.036,0"/>
	<path id="XMLID_331_" fill="none" stroke="#CDCCCC" stroke-width="5" stroke-miterlimit="10" d="M130.077,622.375
		c0-159.887,129.174-289.062,289.061-289.062"/>
	
		<line id="XMLID_332_" fill="none" stroke="#0067F5" stroke-width="8" stroke-linecap="round" stroke-linejoin="round" stroke-miterlimit="10" x1="444.431" y1="602.502" x2="626.901" y2="426.355"/>
</g>
</svg>
