<?xml version="1.0" encoding="utf-8"?>
<!-- Generator: Adobe Illustrator 16.0.0, SVG Export Plug-In . SVG Version: 6.00 Build 0)  -->
<!DOCTYPE svg PUBLIC "-//W3C//DTD SVG 1.1//EN" "http://www.w3.org/Graphics/SVG/1.1/DTD/svg11.dtd">
<svg version="1.1" id="Calque_1" xmlns="http://www.w3.org/2000/svg" xmlns:xlink="http://www.w3.org/1999/xlink" x="0px" y="0px"
	 width="841.889px" height="1190.551px" viewBox="0 0 841.889 1190.551" enable-background="new 0 0 841.889 1190.551"
	 xml:space="preserve">
<g id="XMLID_53_">
	<g id="setting-roll">
		<g id="XMLID_461_">
			<path id="XMLID_463_" fill="none" stroke="#CDCCCC" stroke-width="20" stroke-miterlimit="10" d="M800.78,534.468l-51.387-9.421
				c-9.421-38.541-23.98-77.081-46.248-108.77l29.119-42.822c11.134-14.56,9.421-35.114-3.426-47.961l-16.272-16.273l-16.272-16.272
				c-12.847-12.847-33.401-14.56-47.961-3.426l-42.823,29.12c-33.401-22.269-70.229-36.828-108.769-46.249l-9.421-51.387
				c-3.426-18.842-18.842-29.119-36.827-29.119h-25.693h-23.981c-18.842,0-33.401,12.847-36.827,29.119l-9.421,51.387
				c-40.253,7.708-77.08,22.268-108.769,44.536l-42.822-29.12c-14.56-11.134-35.114-9.421-47.962,3.426l-17.985,16.272
				l-17.129,17.986c-12.847,12.847-14.56,33.401-3.426,47.961l29.119,42.822c-22.268,33.401-36.827,70.229-46.248,108.77
				l-51.387,9.421c-18.842,3.426-29.119,18.842-29.119,36.827v23.98v23.98c0,18.842,12.847,33.401,29.119,36.827l51.387,9.421
				c9.421,40.253,23.98,77.081,46.248,108.77l-29.119,42.822c-11.134,14.56-9.421,35.114,3.426,47.961l16.272,16.272l16.272,16.272
				c12.848,12.847,33.402,14.56,47.962,3.426l42.822-29.119c33.401,22.268,70.229,36.827,108.769,46.248l9.421,51.388
				c3.426,18.842,18.842,29.119,36.827,29.119h25.693h23.981c18.842,0,33.401-12.847,36.827-29.119l9.421-51.388
				c38.54-9.421,77.08-23.98,108.769-46.248l42.822,29.119c14.561,11.135,35.115,9.421,47.962-3.426l16.272-16.272l16.272-16.272
				c12.847-12.847,14.56-33.401,3.426-47.961l-29.119-42.822c22.268-33.401,36.827-70.229,46.248-108.77l51.387-9.421
				c18.842-3.426,29.119-18.842,29.119-36.827v-23.98v-23.98C830.755,552.453,817.052,537.893,800.78,534.468z"/>
		</g>
	</g>
	
		<circle id="XMLID_462_" fill="none" stroke="#0067F5" stroke-width="20" stroke-miterlimit="10" cx="423.942" cy="595.275" r="146.453"/>
	
		<circle id="XMLID_153_" fill="none" stroke="#CDCCCC" stroke-width="20" stroke-miterlimit="10" cx="423.942" cy="595.275" r="232.954"/>
</g>
</svg>
