<?xml version="1.0" encoding="utf-8"?>
<!-- Generator: Adobe Illustrator 16.0.0, SVG Export Plug-In . SVG Version: 6.00 Build 0)  -->
<!DOCTYPE svg PUBLIC "-//W3C//DTD SVG 1.1//EN" "http://www.w3.org/Graphics/SVG/1.1/DTD/svg11.dtd">
<svg version="1.1" id="Calque_1" xmlns="http://www.w3.org/2000/svg" xmlns:xlink="http://www.w3.org/1999/xlink" x="0px" y="0px"
	 width="841.889px" height="1190.551px" viewBox="0 0 841.889 1190.551" enable-background="new 0 0 841.889 1190.551"
	 xml:space="preserve">
<g id="XMLID_53_">
	<path id="XMLID_392_" fill="none" stroke="#CDCCCC" stroke-width="16" stroke-miterlimit="10" d="M717.199,1087.471H124.69
		c-33.751,0-60.938-27.188-60.938-60.938V164.017c0-33.75,27.188-60.938,60.938-60.938h592.51c33.751,0,60.938,27.188,60.938,60.938
		v861.578C778.138,1060.283,750.95,1087.471,717.199,1087.471z"/>
	
		<rect id="XMLID_393_" x="129.377" y="200.581" fill="none" stroke="#CDCCCC" stroke-width="16" stroke-miterlimit="10" width="582.197" height="741.575"/>
	
		<circle id="XMLID_394_" fill="none" stroke="#CDCCCC" stroke-width="16" stroke-miterlimit="10" cx="420.945" cy="1004.032" r="36.563"/>
	<polyline id="XMLID_409_" fill="none" stroke="#CDCCCC" stroke-width="16" stroke-miterlimit="10" points="128.44,658.089 
		329.068,536.212 517.509,626.214 750.013,466.836 	"/>
	
		<circle id="XMLID_408_" fill="#FFFFFF" stroke="#0067F5" stroke-width="16" stroke-miterlimit="10" cx="327.193" cy="544.65" r="27.188"/>
	
		<circle id="XMLID_407_" fill="#FFFFFF" stroke="#0067F5" stroke-width="16" stroke-miterlimit="10" cx="522.197" cy="622.463" r="27.188"/>
	<polygon id="XMLID_406_" fill="#FFFFFF" stroke="#0067F5" stroke-width="16" stroke-miterlimit="10" points="778.138,460.273 
		523.134,460.273 523.134,533.399 636.573,533.399 651.573,559.649 666.573,533.399 778.138,533.399 	"/>
	
		<line id="XMLID_405_" opacity="0.2" fill="none" stroke="#514F4F" stroke-width="16" stroke-linejoin="round" stroke-miterlimit="10" enable-background="new    " x1="547.509" y1="484.648" x2="626.261" y2="484.648"/>
	
		<line id="XMLID_404_" opacity="0.2" fill="none" stroke="#514F4F" stroke-width="16" stroke-linejoin="round" stroke-miterlimit="10" enable-background="new    " x1="547.509" y1="511.837" x2="753.763" y2="511.837"/>
	<polygon id="XMLID_403_" fill="#FFFFFF" stroke="#0067F5" stroke-width="16" stroke-miterlimit="10" points="620.635,270.894 
		364.694,270.894 364.694,344.02 480.008,344.02 495.008,370.271 510.009,344.02 620.635,344.02 	"/>
	
		<line id="XMLID_402_" opacity="0.2" fill="none" stroke="#514F4F" stroke-width="16" stroke-linejoin="round" stroke-miterlimit="10" enable-background="new    " x1="596.26" y1="319.645" x2="516.572" y2="319.645"/>
	
		<line id="XMLID_401_" opacity="0.2" fill="none" stroke="#514F4F" stroke-width="16" stroke-linejoin="round" stroke-miterlimit="10" enable-background="new    " x1="596.26" y1="292.457" x2="389.069" y2="292.457"/>
	<polygon id="XMLID_400_" fill="#FFFFFF" stroke="#0067F5" stroke-width="16" stroke-miterlimit="10" points="212.817,719.027 
		467.821,719.027 467.821,645.901 353.444,645.901 338.444,619.65 323.443,645.901 212.817,645.901 	"/>
	
		<line id="XMLID_399_" opacity="0.2" fill="none" stroke="#514F4F" stroke-width="16" stroke-linejoin="round" stroke-miterlimit="10" enable-background="new    " x1="237.192" y1="670.276" x2="315.943" y2="670.276"/>
	
		<line id="XMLID_398_" opacity="0.2" fill="none" stroke="#514F4F" stroke-width="16" stroke-linejoin="round" stroke-miterlimit="10" enable-background="new    " x1="237.192" y1="697.465" x2="444.382" y2="697.465"/>
	<polygon id="XMLID_397_" fill="#FFFFFF" stroke="#0067F5" stroke-width="16" stroke-miterlimit="10" points="355.319,405.897 
		103.127,405.897 103.127,479.023 212.817,479.023 231.567,510.898 250.317,479.023 355.319,479.023 	"/>
	
		<line id="XMLID_396_" opacity="0.2" fill="none" stroke="#514F4F" stroke-width="16" stroke-linejoin="round" stroke-miterlimit="10" enable-background="new    " x1="124.69" y1="430.272" x2="207.191" y2="430.272"/>
	
		<line id="XMLID_395_" opacity="0.2" fill="none" stroke="#514F4F" stroke-width="16" stroke-linejoin="round" stroke-miterlimit="10" enable-background="new    " x1="124.69" y1="454.648" x2="334.693" y2="454.648"/>
	
		<line id="XMLID_121_" fill="none" stroke="#CDCCCC" stroke-width="16" stroke-linecap="round" stroke-miterlimit="10" x1="390.006" y1="160.267" x2="451.883" y2="160.267"/>
</g>
</svg>
